<?xml version="1.0" encoding="UTF-8" standalone="no"?>
<!-- Created with Inkscape (http://www.inkscape.org/) -->

<svg
   width="210mm"
   height="297mm"
   viewBox="0 0 210 297"
   version="1.1"
   id="svg5"
   xml:space="preserve"
   inkscape:version="1.2.1 (1:1.2.1+202210291243+9c6d41e410)"
   sodipodi:docname="Free Hub.svg"
   xmlns:inkscape="http://www.inkscape.org/namespaces/inkscape"
   xmlns:sodipodi="http://sodipodi.sourceforge.net/DTD/sodipodi-0.dtd"
   xmlns="http://www.w3.org/2000/svg"
   xmlns:svg="http://www.w3.org/2000/svg"><sodipodi:namedview
     id="namedview7"
     pagecolor="#505050"
     bordercolor="#ffffff"
     borderopacity="1"
     inkscape:showpageshadow="0"
     inkscape:pageopacity="0"
     inkscape:pagecheckerboard="1"
     inkscape:deskcolor="#505050"
     inkscape:document-units="mm"
     showgrid="false"
     inkscape:zoom="0.61142537"
     inkscape:cx="323.01571"
     inkscape:cy="665.65769"
     inkscape:window-width="1310"
     inkscape:window-height="680"
     inkscape:window-x="28"
     inkscape:window-y="28"
     inkscape:window-maximized="1"
     inkscape:current-layer="layer1" /><defs
     id="defs2"><clipPath
       id="clip0_29_599"><rect
         width="30"
         height="30"
         fill="white"
         id="rect287" /></clipPath></defs><g
     inkscape:label="Layer 1"
     inkscape:groupmode="layer"
     id="layer1"><g
       clip-path="url(#clip0_29_599)"
       id="g285"
       transform="matrix(6.6666667,0,0,6.6666667,4.8017817,70.599716)"
       style="display:inline"><path
         d="M 15,0 C 23.2843,0 30,6.71572 30,15 30,23.2843 23.2843,30 15,30 6.71572,30 0,23.2843 0,15 0,6.71572 6.71572,0 15,0 Z"
         fill="currentColor"
         id="path273"
         style="fill:#60a5fa;fill-opacity:1" /></g><path
       style="opacity:1;fill:#ffffff;stroke-width:0.264583"
       d="m 37.495064,207.4967 c 0,0 7.599305,10.31209 13.491184,9.50181 6.084479,-0.83677 7.75565,-4.80367 11.987857,-6.43273 5.141748,-1.97916 16.045388,-3.96703 16.045388,-3.96703 0,0 13.233745,-2.06825 19.675108,-3.84754 4.359259,-1.20416 8.481229,-3.14691 12.763939,-4.60002 3.14553,-1.06727 6.17589,-3.15186 9.49508,-3.02391 2.30431,0.0888 4.52758,1.26952 6.41068,2.60056 2.41487,1.70691 4.27576,4.15728 5.88695,6.63704 5.06647,7.79772 11.54849,25.39479 11.54849,25.39479 l 9.34785,27.78699 c 0,0 13.01257,-6.91824 23.26474,-17.97204 12.15953,-13.11029 13.68465,-19.05255 13.68465,-19.05255 0,0 -11.00236,-21.80378 -17.14797,-31.65442 -6.14561,-9.85064 -19.72568,-27.44942 -19.72568,-27.44942 0,0 -10.61542,-19.46049 -19.16801,-26.00314 -2.65119,-2.02814 -9.33458,-3.62567 -9.33458,-3.62567 l -12.59376,-3.72997 -17.118934,3.1652 c 0,0 -7.791526,5.42293 -10.746737,9.05835 -2.383914,2.93263 -5.382559,9.97889 -5.382559,9.97889 l -10.217587,12.89279 c 0,0 -8.787394,9.39846 -13.456994,13.81782 -5.555354,5.42243 -10.24303,9.52931 -15.282515,14.73946 0,0 -5.881287,6.81546 -6.168777,9.91842 -0.28749,3.10297 2.742187,5.86632 2.742187,5.86632 z"
       id="path822"
       sodipodi:nodetypes="csacaaaaaccsczcacccacccczc" /><path
       style="opacity:1;fill:#ffffff;stroke-width:0.264583"
       d="m 134.77167,172.4696 12.82137,-10.88607 c 0,0 6.91571,1.44214 9.87985,0.007 5.11408,-2.47607 6.84962,-7.51802 10.56234,-13.37908 3.71272,-5.86105 8.5397,-9.42294 10.57662,-15.27004 0.22602,-0.6488 0.6487,-1.60263 0.13319,-2.05681 -1.22617,-1.08029 -4.81336,0.93067 -4.81336,0.93067 l -30.72374,11.00547 -9.14928,5.30635 z"
       id="path824"
       sodipodi:nodetypes="ccazaacccc" /><path
       style="opacity:1;fill:#ffffff;stroke-width:0.264583"
       d="m 98.682407,132.20196 5.280493,-6.44545 c 0,0 -3.01372,-2.97073 -4.777774,-4.11251 -2.462743,-1.594 -7.969366,-3.73399 -7.969366,-3.73399 0,0 -3.533734,-1.28636 -5.349689,-1.13063 -1.137067,0.0975 -2.491993,0.35762 -3.180278,1.26795 -0.779581,1.03107 -0.827441,2.63724 -0.400067,3.85716 1.920089,5.4808 6.544643,15.28863 6.544643,15.28863 z"
       id="path826"
       sodipodi:nodetypes="ccacaascc" /><path
       style="opacity:1;fill:#ffffff;stroke-width:0.264583"
       d="m 125.26767,132.25222 c 0,0 -0.20723,-4.20267 0.57043,-6.08598 0.75092,-1.81855 3.34066,-2.63008 3.75596,-4.55324 0.57968,-2.68436 0.29003,-6.69778 -2.15283,-7.95247 -2.46692,-1.26705 -7.16083,0.21104 -7.79394,2.91109 -0.47104,2.00885 0.36162,1.6127 -2.01429,6.72307 -0.89821,1.93197 -2.90108,5.69537 -2.90108,5.69537 z"
       id="path828"
       sodipodi:nodetypes="caaasscc" /><path
       style="opacity:1;fill:#ffffff;stroke-width:0.264583"
       d="m 98.472248,131.70276 4.251012,-5.7639 c 0,0 2.02435,-5.62221 2.58761,-8.54424 0.71192,-3.69324 -0.58568,-3.34658 -0.46638,-7.12258 0.0934,-2.95695 4.74099,-4.32321 7.48461,-3.78548 2.53107,0.49607 5.38713,3.28358 5.07568,5.84031 -0.27516,2.25874 -2.3284,4.63394 -2.66561,7.49631 -0.68581,5.82148 1.68624,8.61373 1.68624,8.61373 z"
       id="path830"
       sodipodi:nodetypes="ccssasscc" /><path
       style="opacity:1;fill:#60a5fa;stroke-width:0.264583;fill-opacity:1"
       d="m 96.95609,167.95467 c 0,0 5.40581,-3.71626 8.50849,-3.77893 2.54052,-0.0513 4.84765,0.83612 7.29813,0.91388 2.45969,0.078 7.369,-0.45101 7.369,-0.45101 0,0 -3.03729,6.83076 -9.26989,8.87688 -3.07975,1.01106 -6.54124,-1.85317 -9.64557,-3.21222 -1.485441,-0.65031 -4.26016,-2.3486 -4.26016,-2.3486 z"
       id="path832"
       sodipodi:nodetypes="csacsac" /><path
       style="opacity:1;fill:#60a5fa;stroke-width:0.264583;fill-opacity:1"
       d="m 117.10417,195.82145 c 6.53528,-3.42929 10.31158,-5.16259 15.2175,-8.28413 0.65266,-0.41529 1.77134,-0.10154 2.26812,0.49141 0.37256,0.44469 0.56577,1.44653 0.0648,1.73915 -4.16835,2.43499 -14.56555,8.44864 -14.56555,8.44864 0,0 -4.11452,-1.80233 -2.98492,-2.39507 z"
       id="path834"
       sodipodi:nodetypes="sssscs" /></g></svg>
